<svg xmlns="http://www.w3.org/2000/svg" xml:space="preserve" id="analytics" x="0" y="0" style="enable-background:new 0 0 128 128" version="1.1" viewBox="0 0 128 128">
  <rect width="20" height="36" x="9" y="81" style="fill:#8bcf1b"></rect>
  <rect width="20" height="36" x="9" y="81" style="fill:#ffd876"></rect>
  <rect width="13" height="36" x="16" y="81" style="fill:#f8c120"></rect>
  <rect width="20" height="36" x="9" y="81" style="fill:none"></rect>
  <rect width="20" height="53" x="38" y="64" style="fill:#72d2fc"></rect>
  <rect width="13" height="53" x="45" y="64" style="fill:#0ca8fd"></rect>
  <rect width="20" height="48" x="67" y="69" style="fill:#ffb380"></rect>
  <rect width="13" height="48" x="74" y="69" style="fill:#ff7a0b"></rect>
  <rect width="20" height="66" x="96" y="51" style="fill:#b0e05c"></rect>
  <rect width="13" height="66" x="103" y="51" style="fill:#8cd717"></rect>
  <rect width="20" height="36" x="9" y="81" style="fill:none;stroke:#31352e;stroke-linecap:round;stroke-linejoin:round;stroke-miterlimit:10;stroke-width:6"></rect>
  <rect width="20" height="53" x="38" y="64" style="fill:none;stroke:#31352e;stroke-linecap:round;stroke-linejoin:round;stroke-miterlimit:10;stroke-width:6"></rect>
  <rect width="20" height="48" x="67" y="69" style="fill:none;stroke:#31352e;stroke-linecap:round;stroke-linejoin:round;stroke-miterlimit:10;stroke-width:6"></rect>
  <rect width="20" height="66" x="96" y="51" style="fill:none;stroke:#31352e;stroke-linecap:round;stroke-linejoin:round;stroke-miterlimit:10;stroke-width:6"></rect>
  <polyline points="8.5 66 47.9 40.8 75.7 49.6 119.5 21.9" style="fill:none;stroke:#31352e;stroke-linecap:round;stroke-linejoin:round;stroke-miterlimit:10;stroke-width:6"></polyline>
  <polyline points="101.4 17.7 120 22 115.7 40.6" style="fill:none;stroke:#31352e;stroke-linecap:round;stroke-linejoin:round;stroke-miterlimit:10;stroke-width:6"></polyline>
</svg>
